<?xml version="1.0" encoding="UTF-8" standalone="no"?>
<!DOCTYPE svg PUBLIC "-//W3C//DTD SVG 1.1//EN"
 "http://www.w3.org/Graphics/SVG/1.1/DTD/svg11.dtd">
<!-- Generated by graphviz version 2.38.0 (20140413.2041)
 -->
<!-- Title: controllers_diagram Pages: 1 -->
<svg width="444pt" height="561pt"
 viewBox="0.00 0.00 443.80 561.00" xmlns="http://www.w3.org/2000/svg" xmlns:xlink="http://www.w3.org/1999/xlink">
<g id="graph0" class="graph" transform="scale(1 1) rotate(0) translate(83.8691 333.5)">
<title>controllers_diagram</title>
<polygon fill="none" stroke="none" points="-83.8691,227.5 -83.8691,-333.5 359.935,-333.5 359.935,227.5 -83.8691,227.5"/>
<!-- _diagram_info -->
<g id="node1" class="node"><title>_diagram_info</title>
<text text-anchor="start" x="120.312" y="-171.1" font-family="Times,serif" font-size="13.00">Controllers diagram</text>
<text text-anchor="start" x="120.312" y="-158.1" font-family="Times,serif" font-size="13.00">Date: Nov 01 2016 &#45; 14:12</text>
<text text-anchor="start" x="120.312" y="-145.1" font-family="Times,serif" font-size="13.00">Migration version: 20160914142510</text>
<text text-anchor="start" x="120.312" y="-132.1" font-family="Times,serif" font-size="13.00">Generated by RailRoady 1.5.2</text>
<text text-anchor="start" x="120.312" y="-119.1" font-family="Times,serif" font-size="13.00">http://railroady.prestonlee.com</text>
</g>
<!-- Api::ApiController -->
<g id="node2" class="node"><title>Api::ApiController</title>
<path fill="none" stroke="black" d="M108.338,95C108.338,95 207.662,95 207.662,95 213.662,95 219.662,89 219.662,83 219.662,83 219.662,-67 219.662,-67 219.662,-73 213.662,-79 207.662,-79 207.662,-79 108.338,-79 108.338,-79 102.338,-79 96.3379,-73 96.3379,-67 96.3379,-67 96.3379,83 96.3379,83 96.3379,89 102.338,95 108.338,95"/>
<text text-anchor="middle" x="158" y="-63.8" font-family="Times,serif" font-size="14.00">Api::ApiController</text>
<polyline fill="none" stroke="black" points="96.3379,-57 219.662,-57 "/>
<text text-anchor="start" x="104.338" y="-41.8" font-family="Times,serif" font-size="14.00">create</text>
<text text-anchor="start" x="104.338" y="-27.8" font-family="Times,serif" font-size="14.00">index</text>
<text text-anchor="start" x="104.338" y="-13.8" font-family="Times,serif" font-size="14.00">ping</text>
<text text-anchor="start" x="104.338" y="0.2" font-family="Times,serif" font-size="14.00">show</text>
<text text-anchor="start" x="104.338" y="14.2" font-family="Times,serif" font-size="14.00">update</text>
<polyline fill="none" stroke="black" points="96.3379,21 219.662,21 "/>
<polyline fill="none" stroke="black" points="96.3379,45 219.662,45 "/>
<text text-anchor="start" x="104.338" y="60.2" font-family="Times,serif" font-size="14.00">in_weekly_mode?</text>
<text text-anchor="start" x="104.338" y="74.2" font-family="Times,serif" font-size="14.00">resource_params</text>
<text text-anchor="start" x="104.338" y="88.2" font-family="Times,serif" font-size="14.00">set_date</text>
</g>
<!-- ApplicationController -->
<g id="node3" class="node"><title>ApplicationController</title>
<path fill="none" stroke="black" d="M-51.8208,-113C-51.8208,-113 63.8208,-113 63.8208,-113 69.8208,-113 75.8208,-119 75.8208,-125 75.8208,-125 75.8208,-207 75.8208,-207 75.8208,-213 69.8208,-219 63.8208,-219 63.8208,-219 -51.8208,-219 -51.8208,-219 -57.8208,-219 -63.8208,-213 -63.8208,-207 -63.8208,-207 -63.8208,-125 -63.8208,-125 -63.8208,-119 -57.8208,-113 -51.8208,-113"/>
<text text-anchor="middle" x="6" y="-203.8" font-family="Times,serif" font-size="14.00">ApplicationController</text>
<polyline fill="none" stroke="black" points="-63.8208,-197 75.8208,-197 "/>
<polyline fill="none" stroke="black" points="-63.8208,-173 75.8208,-173 "/>
<polyline fill="none" stroke="black" points="-63.8208,-149 75.8208,-149 "/>
<text text-anchor="start" x="-55.8208" y="-133.8" font-family="Times,serif" font-size="14.00">_layout</text>
<text text-anchor="start" x="-55.8208" y="-119.8" font-family="Times,serif" font-size="14.00">set_locale</text>
</g>
<!-- ApprovalsController -->
<g id="node4" class="node"><title>ApprovalsController</title>
<path fill="none" stroke="black" d="M236.065,-225C236.065,-225 343.935,-225 343.935,-225 349.935,-225 355.935,-231 355.935,-237 355.935,-237 355.935,-317 355.935,-317 355.935,-323 349.935,-329 343.935,-329 343.935,-329 236.065,-329 236.065,-329 230.065,-329 224.065,-323 224.065,-317 224.065,-317 224.065,-237 224.065,-237 224.065,-231 230.065,-225 236.065,-225"/>
<text text-anchor="middle" x="290" y="-313.8" font-family="Times,serif" font-size="14.00">ApprovalsController</text>
<polyline fill="none" stroke="black" points="224.065,-307 355.935,-307 "/>
<text text-anchor="start" x="232.065" y="-291.8" font-family="Times,serif" font-size="14.00">approve_user</text>
<text text-anchor="start" x="232.065" y="-277.8" font-family="Times,serif" font-size="14.00">index</text>
<polyline fill="none" stroke="black" points="224.065,-271 355.935,-271 "/>
<polyline fill="none" stroke="black" points="224.065,-247 355.935,-247 "/>
<text text-anchor="start" x="232.065" y="-231.8" font-family="Times,serif" font-size="14.00">_layout</text>
</g>
<!-- DashboardController -->
<g id="node5" class="node"><title>DashboardController</title>
<path fill="none" stroke="black" d="M-67.8691,95C-67.8691,95 57.8691,95 57.8691,95 63.8691,95 69.8691,89 69.8691,83 69.8691,83 69.8691,-67 69.8691,-67 69.8691,-73 63.8691,-79 57.8691,-79 57.8691,-79 -67.8691,-79 -67.8691,-79 -73.8691,-79 -79.8691,-73 -79.8691,-67 -79.8691,-67 -79.8691,83 -79.8691,83 -79.8691,89 -73.8691,95 -67.8691,95"/>
<text text-anchor="middle" x="-5" y="-63.8" font-family="Times,serif" font-size="14.00">DashboardController</text>
<polyline fill="none" stroke="black" points="-79.8691,-57 69.8691,-57 "/>
<text text-anchor="start" x="-71.8691" y="-41.8" font-family="Times,serif" font-size="14.00">create_booking</text>
<text text-anchor="start" x="-71.8691" y="-27.8" font-family="Times,serif" font-size="14.00">delete_booking</text>
<text text-anchor="start" x="-71.8691" y="-13.8" font-family="Times,serif" font-size="14.00">edit_booking</text>
<text text-anchor="start" x="-71.8691" y="0.2" font-family="Times,serif" font-size="14.00">index</text>
<polyline fill="none" stroke="black" points="-79.8691,7 69.8691,7 "/>
<polyline fill="none" stroke="black" points="-79.8691,31 69.8691,31 "/>
<text text-anchor="start" x="-71.8691" y="46.2" font-family="Times,serif" font-size="14.00">_layout</text>
<text text-anchor="start" x="-71.8691" y="60.2" font-family="Times,serif" font-size="14.00">booking_params</text>
<text text-anchor="start" x="-71.8691" y="74.2" font-family="Times,serif" font-size="14.00">delete_booking_params</text>
<text text-anchor="start" x="-71.8691" y="88.2" font-family="Times,serif" font-size="14.00">get_date</text>
</g>
<!-- PagesController -->
<g id="node6" class="node"><title>PagesController</title>
<path fill="none" stroke="black" d="M11.9585,223C11.9585,223 112.042,223 112.042,223 118.042,223 124.042,217 124.042,211 124.042,211 124.042,145 124.042,145 124.042,139 118.042,133 112.042,133 112.042,133 11.9585,133 11.9585,133 5.9585,133 -0.0415039,139 -0.0415039,145 -0.0415039,145 -0.0415039,211 -0.0415039,211 -0.0415039,217 5.9585,223 11.9585,223"/>
<text text-anchor="middle" x="62" y="148.2" font-family="Times,serif" font-size="14.00">PagesController</text>
<polyline fill="none" stroke="black" points="-0.0415039,155 124.042,155 "/>
<polyline fill="none" stroke="black" points="-0.0415039,179 124.042,179 "/>
<text text-anchor="start" x="7.9585" y="194.2" font-family="Times,serif" font-size="14.00">_layout_from_proc</text>
<polyline fill="none" stroke="black" points="-0.0415039,201 124.042,201 "/>
<text text-anchor="start" x="7.9585" y="216.2" font-family="Times,serif" font-size="14.00">_layout</text>
</g>
</g>
</svg>
