<?xml version="1.0" encoding="UTF-8" standalone="no"?>
<!DOCTYPE svg PUBLIC "-//W3C//DTD SVG 1.1//EN"
 "http://www.w3.org/Graphics/SVG/1.1/DTD/svg11.dtd">
<!-- Generated by graphviz version 2.38.0 (20140413.2041)
 -->
<!-- Title: models_diagram Pages: 1 -->
<svg width="990pt" height="321pt"
 viewBox="0.00 0.00 990.32 321.00" xmlns="http://www.w3.org/2000/svg" xmlns:xlink="http://www.w3.org/1999/xlink">
<g id="graph0" class="graph" transform="scale(1 1) rotate(0) translate(4 317)">
<title>models_diagram</title>
<polygon fill="none" stroke="none" points="-4,4 -4,-317 986.323,-317 986.323,4 -4,4"/>
<!-- _diagram_info -->
<g id="node1" class="node"><title>_diagram_info</title>
<text text-anchor="start" x="8" y="-221.6" font-family="Times,serif" font-size="13.00">Models diagram</text>
<text text-anchor="start" x="8" y="-208.6" font-family="Times,serif" font-size="13.00">Date: Nov 01 2016 &#45; 14:12</text>
<text text-anchor="start" x="8" y="-195.6" font-family="Times,serif" font-size="13.00">Migration version: 20160914142510</text>
<text text-anchor="start" x="8" y="-182.6" font-family="Times,serif" font-size="13.00">Generated by RailRoady 1.5.2</text>
<text text-anchor="start" x="8" y="-169.6" font-family="Times,serif" font-size="13.00">http://railroady.prestonlee.com</text>
</g>
<!-- ApplicationRecord -->
<g id="node2" class="node"><title>ApplicationRecord</title>
<ellipse fill="none" stroke="black" cx="302.688" cy="-199.5" rx="77.2916" ry="18"/>
<text text-anchor="middle" x="302.688" y="-195.3" font-family="Times,serif" font-size="14.00">ApplicationRecord</text>
</g>
<!-- Resource -->
<g id="node3" class="node"><title>Resource</title>
<path fill="none" stroke="black" d="M409.825,-128.5C409.825,-128.5 633.55,-128.5 633.55,-128.5 639.55,-128.5 645.55,-134.5 645.55,-140.5 645.55,-140.5 645.55,-258.5 645.55,-258.5 645.55,-264.5 639.55,-270.5 633.55,-270.5 633.55,-270.5 409.825,-270.5 409.825,-270.5 403.825,-270.5 397.825,-264.5 397.825,-258.5 397.825,-258.5 397.825,-140.5 397.825,-140.5 397.825,-134.5 403.825,-128.5 409.825,-128.5"/>
<text text-anchor="middle" x="521.688" y="-255.3" font-family="Times,serif" font-size="14.00">Resource</text>
<polyline fill="none" stroke="black" points="397.825,-248.5 645.55,-248.5 "/>
<text text-anchor="start" x="405.825" y="-233.3" font-family="Times,serif" font-size="14.00">uuid :character varying</text>
<text text-anchor="start" x="405.825" y="-219.3" font-family="Times,serif" font-size="14.00">designation :character varying</text>
<text text-anchor="start" x="405.825" y="-205.3" font-family="Times,serif" font-size="14.00">description :text</text>
<text text-anchor="start" x="405.825" y="-191.3" font-family="Times,serif" font-size="14.00">created_at :timestamp without time zone</text>
<text text-anchor="start" x="405.825" y="-177.3" font-family="Times,serif" font-size="14.00">updated_at :timestamp without time zone</text>
<text text-anchor="start" x="405.825" y="-163.3" font-family="Times,serif" font-size="14.00">capacity :integer</text>
<text text-anchor="start" x="405.825" y="-149.3" font-family="Times,serif" font-size="14.00">schedule :text</text>
<text text-anchor="start" x="405.825" y="-135.3" font-family="Times,serif" font-size="14.00">id :integer</text>
</g>
<!-- ActsAsBookable::Booking -->
<g id="node5" class="node"><title>ActsAsBookable::Booking</title>
<ellipse fill="none" stroke="black" cx="671.688" cy="-18" rx="105.332" ry="18"/>
<text text-anchor="middle" x="671.688" y="-13.8" font-family="Times,serif" font-size="14.00">ActsAsBookable::Booking</text>
</g>
<!-- Resource&#45;&gt;ActsAsBookable::Booking -->
<g id="edge1" class="edge"><title>Resource&#45;&gt;ActsAsBookable::Booking</title>
<path fill="none" stroke="#d4ef6b" d="M585.629,-121.984C609.062,-93.9425 633.967,-64.139 650.923,-43.8485"/>
<ellipse fill="none" stroke="#d4ef6b" cx="582.891" cy="-125.26" rx="4.00002" ry="4.00002"/>
<polygon fill="#d4ef6b" stroke="#d4ef6b" points="651.042,-43.7064 660.907,-38.9185 654.248,-39.8697 657.454,-36.0329 657.454,-36.0329 657.454,-36.0329 654.248,-39.8697 654.001,-33.1473 651.042,-43.7064 651.042,-43.7064"/>
<text text-anchor="middle" x="664.357" y="-56.8" font-family="Times,serif" font-size="14.00">bookings</text>
</g>
<!-- User -->
<g id="node4" class="node"><title>User</title>
<path fill="none" stroke="black" d="M675.053,-86.5C675.053,-86.5 970.323,-86.5 970.323,-86.5 976.323,-86.5 982.323,-92.5 982.323,-98.5 982.323,-98.5 982.323,-300.5 982.323,-300.5 982.323,-306.5 976.323,-312.5 970.323,-312.5 970.323,-312.5 675.053,-312.5 675.053,-312.5 669.053,-312.5 663.053,-306.5 663.053,-300.5 663.053,-300.5 663.053,-98.5 663.053,-98.5 663.053,-92.5 669.053,-86.5 675.053,-86.5"/>
<text text-anchor="middle" x="822.688" y="-297.3" font-family="Times,serif" font-size="14.00">User</text>
<polyline fill="none" stroke="black" points="663.053,-290.5 982.323,-290.5 "/>
<text text-anchor="start" x="671.053" y="-275.3" font-family="Times,serif" font-size="14.00">approved :boolean</text>
<text text-anchor="start" x="671.053" y="-261.3" font-family="Times,serif" font-size="14.00">email :character varying</text>
<text text-anchor="start" x="671.053" y="-247.3" font-family="Times,serif" font-size="14.00">encrypted_password :character varying</text>
<text text-anchor="start" x="671.053" y="-233.3" font-family="Times,serif" font-size="14.00">reset_password_token :character varying</text>
<text text-anchor="start" x="671.053" y="-219.3" font-family="Times,serif" font-size="14.00">reset_password_sent_at :timestamp without time zone</text>
<text text-anchor="start" x="671.053" y="-205.3" font-family="Times,serif" font-size="14.00">remember_created_at :timestamp without time zone</text>
<text text-anchor="start" x="671.053" y="-191.3" font-family="Times,serif" font-size="14.00">sign_in_count :integer</text>
<text text-anchor="start" x="671.053" y="-177.3" font-family="Times,serif" font-size="14.00">current_sign_in_at :timestamp without time zone</text>
<text text-anchor="start" x="671.053" y="-163.3" font-family="Times,serif" font-size="14.00">last_sign_in_at :timestamp without time zone</text>
<text text-anchor="start" x="671.053" y="-149.3" font-family="Times,serif" font-size="14.00">current_sign_in_ip :inet</text>
<text text-anchor="start" x="671.053" y="-135.3" font-family="Times,serif" font-size="14.00">last_sign_in_ip :inet</text>
<text text-anchor="start" x="671.053" y="-121.3" font-family="Times,serif" font-size="14.00">created_at :timestamp without time zone</text>
<text text-anchor="start" x="671.053" y="-107.3" font-family="Times,serif" font-size="14.00">updated_at :timestamp without time zone</text>
<text text-anchor="start" x="671.053" y="-93.3" font-family="Times,serif" font-size="14.00">id :integer</text>
</g>
<!-- User&#45;&gt;ActsAsBookable::Booking -->
<g id="edge2" class="edge"><title>User&#45;&gt;ActsAsBookable::Booking</title>
<path fill="none" stroke="#f39f97" d="M722.957,-79.9461C711.652,-66.5067 701.157,-54.0311 692.645,-43.9133"/>
<ellipse fill="none" stroke="#f39f97" cx="725.769" cy="-83.2889" rx="4.00002" ry="4.00002"/>
<polygon fill="#f39f97" stroke="#f39f97" points="692.426,-43.6518 689.432,-33.1025 689.207,-39.8256 685.988,-35.9994 685.988,-35.9994 685.988,-35.9994 689.207,-39.8256 682.544,-38.8962 692.426,-43.6518 692.426,-43.6518"/>
<text text-anchor="middle" x="737.357" y="-56.8" font-family="Times,serif" font-size="14.00">bookings</text>
</g>
</g>
</svg>
