<?xml version="1.0" encoding="UTF-8" standalone="no"?>
<!DOCTYPE svg PUBLIC "-//W3C//DTD SVG 1.1//EN"
 "http://www.w3.org/Graphics/SVG/1.1/DTD/svg11.dtd">
<!-- Generated by graphviz version 2.38.0 (20140413.2041)
 -->
<!-- Title: models_diagram Pages: 1 -->
<svg width="598pt" height="167pt"
 viewBox="0.00 0.00 598.10 167.00" xmlns="http://www.w3.org/2000/svg" xmlns:xlink="http://www.w3.org/1999/xlink">
<g id="graph0" class="graph" transform="scale(1 1) rotate(0) translate(4 163)">
<title>models_diagram</title>
<polygon fill="none" stroke="none" points="-4,4 -4,-163 594.104,-163 594.104,4 -4,4"/>
<!-- _diagram_info -->
<g id="node1" class="node"><title>_diagram_info</title>
<text text-anchor="start" x="8" y="-144.6" font-family="Times,serif" font-size="13.00">Models diagram</text>
<text text-anchor="start" x="8" y="-131.6" font-family="Times,serif" font-size="13.00">Date: Nov 01 2016 &#45; 14:12</text>
<text text-anchor="start" x="8" y="-118.6" font-family="Times,serif" font-size="13.00">Migration version: 20160914142510</text>
<text text-anchor="start" x="8" y="-105.6" font-family="Times,serif" font-size="13.00">Generated by RailRoady 1.5.2</text>
<text text-anchor="start" x="8" y="-92.6" font-family="Times,serif" font-size="13.00">http://railroady.prestonlee.com</text>
</g>
<!-- ApplicationRecord -->
<g id="node2" class="node"><title>ApplicationRecord</title>
<ellipse fill="none" stroke="black" cx="302.688" cy="-122.5" rx="77.2916" ry="18"/>
<text text-anchor="middle" x="302.688" y="-118.3" font-family="Times,serif" font-size="14.00">ApplicationRecord</text>
</g>
<!-- Resource -->
<g id="node3" class="node"><title>Resource</title>
<ellipse fill="none" stroke="black" cx="440.688" cy="-122.5" rx="43.0215" ry="18"/>
<text text-anchor="middle" x="440.688" y="-118.3" font-family="Times,serif" font-size="14.00">Resource</text>
</g>
<!-- ActsAsBookable::Booking -->
<g id="node5" class="node"><title>ActsAsBookable::Booking</title>
<ellipse fill="none" stroke="black" cx="484.688" cy="-18" rx="105.332" ry="18"/>
<text text-anchor="middle" x="484.688" y="-13.8" font-family="Times,serif" font-size="14.00">ActsAsBookable::Booking</text>
</g>
<!-- Resource&#45;&gt;ActsAsBookable::Booking -->
<g id="edge1" class="edge"><title>Resource&#45;&gt;ActsAsBookable::Booking</title>
<path fill="none" stroke="#26ed12" d="M443.23,-96.2497C445.265,-83.142 448.899,-67.1613 455.35,-54 457.018,-50.596 459.087,-47.2427 461.348,-44.0398"/>
<ellipse fill="none" stroke="#26ed12" cx="442.655" cy="-100.427" rx="4.00001" ry="4.00001"/>
<polygon fill="#26ed12" stroke="#26ed12" points="461.486,-43.8634 471.187,-38.751 464.563,-39.9224 467.64,-35.9815 467.64,-35.9815 467.64,-35.9815 464.563,-39.9224 464.093,-33.212 461.486,-43.8634 461.486,-43.8634"/>
<text text-anchor="middle" x="480.357" y="-56.8" font-family="Times,serif" font-size="14.00">bookings</text>
</g>
<!-- User -->
<g id="node4" class="node"><title>User</title>
<ellipse fill="none" stroke="black" cx="528.688" cy="-122.5" rx="27" ry="18"/>
<text text-anchor="middle" x="528.688" y="-118.3" font-family="Times,serif" font-size="14.00">User</text>
</g>
<!-- User&#45;&gt;ActsAsBookable::Booking -->
<g id="edge2" class="edge"><title>User&#45;&gt;ActsAsBookable::Booking</title>
<path fill="none" stroke="#697adf" d="M522.179,-96.6435C518.382,-83.6445 513.079,-67.6421 506.688,-54 505.257,-50.9454 503.61,-47.8326 501.874,-44.7861"/>
<ellipse fill="none" stroke="#697adf" cx="523.367" cy="-100.848" rx="4.00001" ry="4.00001"/>
<polygon fill="#697adf" stroke="#697adf" points="501.713,-44.5207 500.377,-33.6365 499.121,-40.245 496.529,-35.9693 496.529,-35.9693 496.529,-35.9693 499.121,-40.245 492.681,-38.3021 501.713,-44.5207 501.713,-44.5207"/>
<text text-anchor="middle" x="537.357" y="-56.8" font-family="Times,serif" font-size="14.00">bookings</text>
</g>
</g>
</svg>
